<?xml version="1.0" encoding="utf-8"?>
<!-- Generator: Adobe Illustrator 27.8.0, SVG Export Plug-In . SVG Version: 6.00 Build 0)  -->
<svg version="1.1" id="Layer_1" xmlns="http://www.w3.org/2000/svg" xmlns:xlink="http://www.w3.org/1999/xlink" x="0px" y="0px"
	 viewBox="0 0 595.28 841.89" style="enable-background:new 0 0 595.28 841.89;" xml:space="preserve">
<style type="text/css">
	.st0{fill:#C81F43;}
</style>
<path class="st0" d="M813.26,866.72c-2.36-23.27-11.72-44.35-21.57-65.06c-5.31-11.16-5.35-20.57,2.83-29.83
	c2.09-2.37,4.25-4.69,6.27-7.12c2.97-3.58,6.21-7.01,8.69-10.91c4.36-6.87,1.8-14.52-5.7-17.72c-2.42-1.03-5.08-1.6-7.68-2.08
	c-5.72-1.06-11.5-1.76-17.2-2.91c-10.27-2.06-17.88-7.72-22.53-17.23c-1.97-4.04-4.05-8.03-6.2-11.98
	c-6.23-11.46-15.37-19.6-28.52-21.18c-6.76-0.81-14.01,0.12-20.71,1.68c-14.63,3.42-26.31-0.48-34.21-13.05
	c-10.89-17.31-21.44-34.86-31.34-52.75c-10.1-18.25-13.42-38.14-11.52-58.92c1.96-21.47,7.64-42.05,17.53-61.02
	c9.05-17.36,20.26-33.59,30.24-50.48c3.02-5.11,5.86-10.53,7.52-16.19c2.79-9.51-3.21-18.19-12.96-19.88
	c-3.11-0.54-6.29-0.67-9.44-0.98c-30.48-2.91-51.27-19.39-64.62-46.21c-2.97-5.96-2.13-11.71,3.15-15.72
	c7.12-5.39,14.24-11.33,22.32-14.79c17.24-7.38,35.05-13.48,52.75-19.75c8.23-2.91,11.93-8.47,9.59-16.88
	c-0.97-3.48-2.65-6.84-4.51-9.96c-3.16-5.28-6.7-10.34-10.12-15.47c-5.33-8-12.06-10.67-21.12-7.27
	c-5.69,2.14-10.89,5.62-16.28,8.54c-3.41,1.85-6.76,3.79-11.58,6.5c-0.75-8.88-1.38-16.26-2-23.63c4.53-2.61,9.06-5.23,13.6-7.81
	c1.3-0.74,2.67-1.35,3.99-2.06c7.9-4.25,13.78-10.58,15.06-19.44c1.37-9.46,1.76-19.16,1.44-28.72c-0.28-8.34-1.05-8.42,6.28-12.54
	c7.92-4.45,14.29-10.3,18.01-18.74c4.65-10.55,1.75-19.66-8.72-24.61c-6.1-2.89-12.77-4.66-19.29-6.58
	c-11.8-3.47-23.73-6.51-35.5-10.06c-5.03-1.52-8.99-4.48-11.35-9.72c-3.09-6.88,0.41-11.92,3.75-17.05
	c13.17-20.2,29.7-37.6,46.27-54.95c0.29-0.3,0.84-0.36,1.55-0.65c10.15,12.14,23.61,13.8,38.13,11.62
	c6.41-0.96,12.84-1.97,19.12-3.53c3.51-0.87,4.49,0.42,5.84,3.26c2.34,4.89,4.69,10.06,8.23,14.05c8.83,9.94,19.47,9.96,28.55,0.32
	c9.11-9.66,14.25-21.71,17.88-34.18c2.39-8.22-3.02-14.74-8.06-20.52c-12.18-13.97-27.33-24.29-43.05-33.79
	c-12.03-7.27-13.79-11.96-12.69-25.9c0.87-11.03,1.7-22.5-0.3-33.24c-5.68-30.51-21.21-55.94-45.02-75.74
	c-18.49-15.38-39.6-25.08-64.45-24.05c-6.8,0.28-12.9,1.92-15.26,7.82c-8.32-7.78-16.63-15.94-25.36-23.61
	c-15.76-13.86-33.81-22.23-55.27-22.12c-24.97,0.13-47.93,7.25-69.05,20.21c-13.14,8.06-26.8,14.85-41.62,18.98
	c-5.19,1.44-10.94,2.26-16.22,1.6c-4.03-0.5-8.8-2.88-11.35-5.98c-8.9-10.83-20.17-17.55-33.53-20.23c-7-1.4-14.64-1.41-21.71-0.28
	c-8.2,1.31-10.73,7.95-7.27,15.55c0.83,1.82,1.91,3.53,2.57,5.4c1.01,2.86,0.54,4.34-3.2,4.86c-5.16,0.72-10.55,1.87-15.13,4.22
	c-8.72,4.47-17.15,9.59-25.32,15.02c-20.46,13.6-42.81,20.38-67.38,19.49c-4.87-0.18-8.82,1.34-12,4.94
	c-2.53,2.87-5.16,5.68-7.42,8.75c-4.52,6.15-8.83,12.46-13.22,18.71c1.18-2.91,2.7-5.73,3.5-8.74c5.12-19.47,17.66-31.12,37.07-35.7
	c0.48-0.11,0.92-0.4,1.38-0.57c17.95-6.7,27.57-21.83,25.98-40.87c-1.27-15.19-11.29-23.04-26.07-19.34
	c-7.02,1.76-13.53,5.54-20.8,8.64c-0.86-1.97-2.5-4.88-3.42-8c-2.73-9.21-7.02-17.52-12.8-25.21c-2.44-3.25-4.78-7.22-5.35-11.12
	c-1.32-9.03-4.85-15.42-12.72-21.04c-5.67-4.05-10.45-6.96-17.29-6.36c-1.81,0.16-3.65-0.2-5.48-0.29
	c-17.46-0.85-34.91-1.86-52.38-2.49c-9.53-0.35-18.43,1.51-25.83,8.46c-3.98,3.74-8.63,6.8-13.17,9.88
	c-10.81,7.35-13.11,17.77-11.17,29.84c0.61,3.77,1.38,7.53,1.7,11.33c1.08,12.61,1.79,25.25,3.02,37.84
	c1.59,16.26,11,28.96,19.86,41.82c2.2,3.2,4.64,5.88,3.74,10.29c-1.61,7.84,0.55,13.05,7.99,15.53c9.28,3.1,15.14,8.77,18.07,17.87
	c0.15,0.47,0.42,0.9,0.66,1.34c9.31,17.36,21.5,20.91,38.88,11.62c6.29-3.36,12.6-7.23,19.39-8.98c9.23-2.37,17.01-6.39,23.45-13.25
	c-0.58,1.17-1.02,2.44-1.77,3.48c-10.83,14.92-21.93,29.64-32.48,44.75c-7.6,10.88-15.46,21.89-17.5,35.45
	c-1.08,7.22-3.63,13.64-8.33,18.89C82.39,11.24,70.46,24.02,58.32,36.58c-3.04,3.15-7.04,5.81-11.1,7.45
	c-11.37,4.61-22.9,8.92-34.58,12.68C1.07,60.43-5.8,67.71-7,79.82c-0.56,5.59-2.68,9.95-6.75,13.86
	c-13.1,12.57-25.99,25.36-38.89,38.14c-6.89,6.82-7.06,10.18-1.39,17.98c0.58,0.8,1.23,1.64,1.51,2.57
	c2.83,9.23,10.91,11.48,20.31,8.79c1.57-0.45,3.37-1.23,4.79-0.85c7.35,1.97,14.38-0.16,19.07-4.87c6.52-6.55,14.46-8.8,22.52-11.58
	c2.97-1.02,5.83-2.47,8.57-4.02c3.93-2.24,7.65-2.06,11.21,0.54c3.63,2.65,7.15,5.44,10.7,8.2c13.53,10.55,22.65,6.7,25.47-10.36
	c1.78-10.78,3.86-21.58,6.77-32.1c2.3-8.34,8.84-12.76,17.51-13.27c8.31-0.49,16.64-0.47,24.96-0.83c3.81-0.16,7.7-0.28,11.38-1.14
	c7.26-1.69,10.44-6.69,9.49-14.04c-0.26-2.06-0.58-4.12-0.95-6.7c2.3,0.11,4.18-0.14,5.85,0.34c7.17,2.08,14.2,4.67,21.43,6.48
	c5.23,1.31,10.67,2.03,16.05,2.39c3.47,0.23,7.01-0.68,10.52-1.09c-8.08,5.03-7.82,11.95-5.88,19.93
	c1.55,6.42,2.08,13.14,2.47,19.76c0.17,2.84-0.26,6.55-1.96,8.52c-6.48,7.51-5.09,15.37-1.25,22.86c6.66,13,13.91,25.72,21.3,38.33
	c5.03,8.58,10.88,16.57,23.56,15.25c-1.83,2.52-2.96,4.12-4.14,5.68c-8.9,11.85-17.87,23.64-26.68,35.56
	c-9.27,12.54-8.82,25.27-0.35,38.04c5.06,7.64,9.68,15.38,11.69,24.6c1.52,6.97,6.36,10.15,13.48,10.19
	c3.96,0.02,7.92-0.39,11.88-0.61c-4.09,2.89-8.39,5.8-13.12,7.33c-7.34,2.37-11.57,7.27-13.17,14.32
	c-3.21,14.09-5.87,28.31-8.92,42.44c-3.3,15.26-5.87,30.75-10.42,45.64c-5.38,17.64-17.13,31.77-28.86,45.71
	c-8.12,9.65-14.77,20.64-25.79,27.58c-8.73,5.5-17.53,10.89-26.11,16.61c-2.94,1.96-5.86,4.4-7.87,7.26
	c-9.35,13.36-20.61,24.37-35.63,31.21c-5.59,2.55-11.75,4.49-16.47,8.2c-9.07,7.13-19,7.49-29.38,5.64
	c-11.13-1.99-22.06-5.16-33.22-6.82c-10.76-1.61-17.84,2.97-15.97,14c0.03,0.19-0.37,0.45-0.57,0.67
	C-40.02,574-43.61,576-48.01,587.24c-0.67,1.7-1.35,3.41-1.84,5.17c-3.57,12.8-11.84,20.81-24.53,24.52
	c-4.14,1.21-8.51,2.22-12.12,4.42c-3.01,1.83-5.01,5.3-7.55,7.96c-1.04,1.09-2.15,2.4-3.49,2.87c-7.69,2.69-15.54,4.96-23.18,7.78
	c-5.33,1.97-10.21,1.61-15.44-0.44c-9.28-3.63-18.54-7.68-28.18-9.94c-16.08-3.77-26.44,4.17-23.77,21.03
	c0.18,1.15,0.21,2.33,0.4,3.47c2.08,12.51,0.04,19.02-11.42,24.22c-19.79,8.98-40.19,16.66-60.47,24.54
	c-4.18,1.63-6.63,3.64-7.54,8.15c-1.43,7.12-5.33,12.54-12.65,14.73c-11.39,3.41-15.48,13.63-12.99,25.15
	c2.22,10.28,11.31,14.74,19.6,9.04c15.31-10.52,32.43-12.4,50.13-11.7c9.35,0.37,17.85,3.54,22.52,12.46
	c5.75,11,4.4,22.77,3.5,34.92c-11.56-4.01-19.39-0.05-25.41,9.17c-4.62,7.09-10.87,12.53-18.3,16.65c-2.44,1.35-4.86,3.02-6.74,5.05
	c-4.23,4.56-3.12,11.08,2.45,13.83c2.92,1.44,6.28,2.11,9.51,2.74c4.5,0.88,6.93,2.52,6.48,7.93c-0.77,9.29,3.64,14.85,12.41,17.26
	c9.35,2.56,16.51-3.03,14.89-12.59c-1.73-10.2,3.19-14.05,13.25-12.28c1.95,0.34,3.86,0.98,5.77,1.55c7.61,2.26,15.1,5.17,22.86,6.6
	c6.09,1.12,12.92,1.84,18.7,0.19c9.96-2.83,19.41-7.52,28.95-11.71c1.63-0.71,3.01-2.62,3.9-4.29c5.72-10.8,6.17-21.98,1.56-33.25
	c-1.69-4.14-0.23-6.28,3.74-6.46c6.86-0.3,13.75-0.08,21.4-0.08c-6.88,7.63-13.63,13.54-18.36,20.77
	c-5.15,7.88-1.29,17.08-0.22,25.94c-2.22,0.54-4.14,0.96-6.05,1.47c-9.91,2.65-19.85,5.2-29.7,8.04c-3.62,1.04-6.98,3.78-10.57,4.03
	c-9.34,0.64-18.79,1.57-27.77-2.94c-5.26-2.64-10.97-2.03-15.4,1.95c-4.31,3.87-4.08,9.2-2.55,14.42
	c2.25,7.68,8.05,11.99,14.84,15.27c4.82,2.33,8.05,5.6,8.37,11.36c0.66,12.11,6.35,17.68,18.22,19.93
	c8.26,1.57,16.62,3.61,24.34,6.84c12,5.02,20.53,3.52,28.46-6.9c3.63-4.77,6.79-9.9,10.53-14.57c8.31-10.36,9.45-10.41,19.96-2.53
	c7.81,5.85,14.61,5.71,19.54-2.54c4.75-7.94,11.34-9.15,19.13-9.34c1.83-0.05,3.67-0.1,5.5-0.19c4.76-0.23,7.81-2.36,8.51-7.38
	c0.48-3.46,1.28-6.87,1.92-10.31c1.56-8.43,3.11-16.87,4.72-25.58c4.82,0.31,8.98,0.39,13.09,0.89c13.15,1.61,26.21,2.17,39.13-1.73
	c12.09-3.65,24.2-7.19,36.33-10.69c6.2-1.78,9.35-5.77,9.96-12.18c0.64-6.77,1.8-7.47,9.24-6.5c1.1,3.31,2.23,6.69,3.35,10.04
	c-13.72,5.14-15.48,13.19-5.56,23.34c7.1,7.27,14.16,14.57,21.15,21.94c11.33,11.96,16.97,12.95,31.58,5.44
	c3.25-1.67,6.64-3.07,9.93-4.67c4.12-2.01,7.48-1.1,10.88,1.92c4.58,4.08,9.37,7.99,14.42,11.47c5.44,3.74,11.38,5.26,17.82,1.85
	c1.96-1.04,4.35-1.25,6.54-1.84c0.07,0.47,0.14,0.95,0.21,1.42c-13.43,3.52-26.37,12.04-41.01,2.86c-1.52-0.95-3.37-1.48-5.14-1.9
	c-12.57-2.92-18.63,0.68-22.74,12.99c-1.2,3.59-2.82,7.12-4.75,10.38c-4.24,7.17-5.14,14.58-2.85,22.55
	c5.58,19.49,19.49,28.54,38.65,30.95c16.19,2.04,23.34-1.76,29.83-15.48c3.32-7.01,5.39-8.32,12.33-4.48
	c8.03,4.44,16.3,5.04,25.03,4.74c5.66-0.19,11.33,0.03,16.99,0.08c7.36,0.06,9.43-2.06,9.83-9.3c0.25-4.47,0.63-9.01,1.69-13.33
	c2.51-10.25,7.02-14.16,17.36-13.14c12.47,1.23,22.72-0.39,26.92-14.12c2.59,6.57,4.45,12.97,7.51,18.74
	c5.96,11.23,15.36,19.61,24.98,27.63c5.64,4.7,8.55,10.49,8.55,17.78c0,5.67-0.49,11.37,0.04,16.99c0.57,6.08,1.41,12.28,3.28,18.06
	c3.6,11.12,10.42,13.98,21.4,10.05c4.22-1.51,8.51-2.85,12.82-4.06c4.24-1.19,7.27-0.18,8.83,4.56
	c3.36,10.21,10.08,18.22,17.52,25.75c10.9,11.04,22.77,18.67,39.51,17.96c8.08-0.34,17.13,2.11,24.33,5.95
	c11.69,6.23,23.62,7.67,35.77,4.84c16.47-3.84,32.63-9.09,48.82-14.05c6.82-2.09,13.56-4.63,20.05-7.61
	c9.45-4.34,12.11-11.87,8.18-21.46c-0.98-2.39-2.11-4.72-2.85-6.38c4.94-3.77,9.38-6.94,13.58-10.41
	c18.12-14.92,36.13-29.99,54.32-44.83c2.08-1.7,5.05-3.26,7.6-3.25c7.62,0.03,15.39,0.11,22.8,1.63c6.94,1.42,13.52,1.54,20.17-0.41
	c16.91-4.98,32.57-12.47,46.79-23.01c2.21-1.64,5.62-3.2,8.07-2.71c10.06,2.01,16.6-2.31,21.92-10.18
	c6.43-9.51,12.45-19.42,19.86-28.11C811.99,883.37,814.17,875.71,813.26,866.72z"/>
</svg>
