<?xml version="1.0" encoding="UTF-8"?><svg id="Layer_1" xmlns="http://www.w3.org/2000/svg" viewBox="0 0 717.3 717.3"><defs><style>.cls-1{fill:#fff;}.cls-1,.cls-2{stroke-width:0px;}.cls-2{fill:#c81f43;}</style></defs><path class="cls-2" d="m643.2,420.5c0,7.1.2,14.3,0,21.4,0,2.7.5,3.7,3.5,3.7,14.1-.2,28.3-.2,42.4,0,2.8,0,3.3-1,3.2-3.4-.1-6,.2-12-.1-17.9-.2-3.2,1-3.9,3.9-3.8,6,.2,12,.2,17.9,0,2.7,0,3.3.9,3.2,3.4,0,39.1,0,78.1,0,117.2,0,3-1.1,3.4-3.7,3.4-15.1,0-30.2,0-45.4,0-2.7-4.5-1.3-9.4-1.4-14.1-.2-10.1.5-9.2-9.5-9.5-4.7-.1-9.6,1.4-14-1.6-1.6-1.9-1.6-4.3-1.5-6.6.4-6-1.3-12.1,1.2-18,1.8-2,4.2-1.8,6.5-1.8,4.3,0,8.6,0,13,0,2.9,0,4.3-1.3,4.3-4.2,0-4.7,0-9.3,0-14,0-2.4-1.2-3.7-3.7-3.7-4.7,0-9.3,0-14,0-2.9,0-4.2,1.4-4.2,4.3,0,4.3,0,8.6,0,13,0,2.1.1,4.4-1.5,6.2-3.7,2.7-8,1.4-12,1.5-12.9.2-11.4-1.1-11.4,11.5,0,11.1-1.2,10.3,10.4,10.5,4.4,0,9-1.3,13.1,1.5,2.7,4.1,1.4,8.7,1.5,13,.2,11.3-.9,10.2,10.5,10.4,4.4,0,8.9-1.2,13.1,1.4,0,8.4-.1,16.7-.2,25.1-.2.2-.4.4-.6.6-5.5,1.7-11.2.6-16.8.8-5.5.3-5.9.5-5.9,6,0,3.3.1,6.6,0,10-.2,3.6,1.4,5.1,5,5,4-.1,8,0,11.9,0,2,0,4-.1,5.9.8.2.2.4.4.6.6,0,7-.2,14,.2,21,.2,3.8-1.3,4.2-4.5,4.1-22-.1-43.9,0-65.9-.2-3.6,0-4.9.7-4.6,4.6.4,5.8,0,11.6.1,17.5,0,2.4-.6,3.2-3,3.1-6-.2-12-.2-18,0-2.4,0-3.1-.6-3.1-3.1.2-6.3,0-12.7.1-19,0-2.4-.7-3.1-3.1-3.1-6.3.2-12.7.2-19,0-2.4,0-3,.7-3,3.1,0,14.6.2,29.3,0,43.9,0,3.2,1.5,3,3.6,3,13.8,0,27.6.1,41.4-.1,3.4,0,4.1,1,4,4.2-.3,6.6-.1,13.3-.1,20h.1c-14.8-.1-29.6,0-44.3-.2-4.1,0-4.9,1.2-4.7,4.9.3,5.6,0,11.3.1,16.9.1,2.7-.8,3.3-3.4,3.3-6-.2-12-.2-17.9,0-3.1.1-3.8-.8-3.8-3.8.1-21.6,0-43.2.2-64.8,0-4.8-1.5-5.7-5.7-5.5-6.5.3-12.9,0-19.4,0-.2-.2-.4-.5-.6-.7-1.1-2.2-.8-4.5-.8-6.9,0-11.3,0-22.6,0-33.9,0-6.5-.4-6.7-6.7-6.9-5.3-.2-10.6.6-15.9-.6-.6-.2-1-.6-1.4-1.1-1.8-5.3-.7-10.9-.9-16.3-.2-5.6-.4-5.9-6-6-3.2,0-6.3.1-9.5,0-4-.2-5.6,1.4-5.6,5.5,0,5.4.9,10.9-.8,16.3-.2.2-.4.4-.6.6-15.3,0-30.6.1-45.9,0-3.1,0-4.2.6-4.2,4,.2,14.1.2,28.3,0,42.4,0,2.7.6,3.7,3.5,3.6,6.1-.2,12.3,0,18.5-.1,2.3,0,3.1.5,3.1,3-.1,14.3-.2,28.6,0,42.9,0,3-1.3,3.1-3.5,3.1-6.2,0-12.3,0-18.5,0-2.4,0-3.2.6-3.1,3,.2,6.3,0,12.6.1,19,0,2.4-.6,3.1-3,3.1-6-.2-12-.3-18,0-4,.3-4.1-1.5-4.1-4.6,0-35.1,0-70.2,0-105.3,0-11.5,0-23,0-34.4,0-2.8-.7-3.7-3.6-3.6-5.6.2-11.3.2-17,0-2.8-.1-3.6.8-3.6,3.6.1,13.8,0,27.6.1,41.4,0,3.3-.9,4.1-4.1,4.1-14-.2-28,0-41.9-.2-3.3,0-4.2.9-4.1,4.1.3,5.8.2,11.7,0,17.5-.1,2.9.8,3.6,3.6,3.5,14.1-.1,28.3,0,42.4-.1,3.3,0,4.2.9,4,4.1-.3,5.8-.2,11.7,0,17.5.1,2.9-.9,3.5-3.6,3.5-14.1-.1-28.3,0-42.4-.1-3.4,0-4.1,1-4,4.2.2,6.6,0,13.3,0,20h.1c-7.1-.1-14.3-.2-21.4,0-2.6,0-3.7-.4-3.7-3.4.1-31.9.1-63.7.1-95.6h-.1c15.1.1,30.2,0,45.4.1,3.4,0,4.9-.4,4.8-4.4-.3-13.6-.2-27.2,0-40.9,0-3.1-.8-3.8-3.9-3.8-14.1.2-28.2,0-42.4.1-3,0-4-.6-3.9-3.8.3-5.8.2-11.6,0-17.4-.1-3,.5-4.1,3.8-3.9,5.5.3,11-.2,16.4.2,3.7.2,5-.7,4.9-4.7-.3-13.6,0-27.2-.2-40.9,0-3.9,1.2-4.6,4.7-4.5,6.8.3,13.6,0,20.4,0,1.7,2.1,1.5,4.7,1.5,7.2,0,11.5,0,22.9,0,34.4,0,6.5.3,6.9,6.6,6.9,11.1,0,22.3,0,33.4,0,5.2,0,5.7-.5,5.7-5.7,0-11.8,0-23.6,0-35.4,0-5.1-.6-5.6-5.9-5.6-11.5,0-22.9,0-34.4,0-2.5,0-5,.2-7.2-1.5,0-6.8.3-13.6,0-20.4-.1-3.2.9-3.9,3.9-3.7,5.8.2,11.6-.1,17.4.1,3,.1,4-.6,3.9-3.8-.3-7.1,0-14.2,0-21.3.2-.2.5-.4.7-.6,5.2-1.7,10.6-.6,15.8-.9,5.2-.3,5.8-.6,5.8-5.8,0-19.8,0-39.6,0-59.4,0-5.1-.6-5.5-5.9-5.7-5.3-.2-10.6.7-15.9-.7-.6-.3-1-.7-1.3-1.3-1.1-2.4-.8-4.9-.8-7.3,0-11.6,0-23.2,0-34.8,0-5.2-.5-5.6-5.7-5.7-3.6,0-7.3,0-10.9,0-7.1,0-8.1-1-8.2-8,0-4-.1-8,0-11.9,0-3.6-1.4-5.1-5-5-4.1.1-8.3,0-12.4,0-2.1,0-4.3,0-6.2-1.5-1.4-1.8-1.4-4.1-1.4-6.2,0-12.1,0-24.3,0-36.4,0-6.7,1.2-7.8,7.9-8,4.5-.1,9-.2,13.5,0,5.2.2,6.4,1.5,6.7,6.6.2,4.3.1,8.6,0,13,0,3.8,1.5,5.5,5.3,5.3,3.8-.1,7.6,0,11.5,0,2.2,0,4.3,0,6.3,1.1,2.7,3,1.7,6.6,1.8,10,.3,14.9-1.8,12.7,13.1,12.9.8,0,1.7,0,2.5,0,3.8.3,5.5-1.4,5.3-5.2-.1-3.7,0-7.3,0-11,0-2.1-.1-4.4,1.3-6.2,4.1-2.6,8.7-1.4,13.1-1.5,11.6-.2,10.5.8,10.7-10.9,0-4-.5-8,.6-11.9.3-.6.7-1,1.2-1.4,8-1.4,15.9-1.4,23.9,0,.2.2.5.4.7.6,0,6.6.3,13.3,0,19.9-.2,4,.6,5.6,5,5.2,5.3-.5,10.6,0,15.9-.2,3-.1,4.5.4,4.2,3.9-.3,5.5-.3,11,0,16.4.2,3.2-1,3.8-3.9,3.7-14.1-.2-28.2,0-42.4-.1-3.1,0-4,.7-3.8,3.8.3,5.8.3,11.6,0,17.4-.1,3,.6,3.9,3.8,3.9,13.9-.2,27.9,0,41.9-.2,3.3,0,4.7.5,4.5,4.2-.4,7-.1,13.9-.2,20.9-.2.2-.4.4-.7.6-4.8,1.6-9.8.7-14.7.8-8,.2-7.9,0-8.1,8.3,0,4.9.7,9.9-.7,14.7-.3.6-.7,1-1.3,1.3-5.7,1.5-11.5.7-17.3.7-4,0-5.6,1.5-5.6,5.6,0,19.9,0,39.8,0,59.7,0,5,.6,5.4,5.9,5.6,5.6.2,11.3-.7,16.8.7.6.3,1,.7,1.4,1.3,1.7,5.5.6,11.2.8,16.9.3,5.5.6,6,6,6.1,4.3,0,8.6,0,13,0,3.8,0,5.9,1.8,5.9,5.7,0,5.2.1,10.3,0,15.5,0,3.9-2.2,5.7-6,5.8-3.5,0-7,0-10.5,0q-8.4,0-8.4,8.2c0,3.3.1,6.7,0,10-.2,5.3-1.4,6.4-6.6,6.7-4.3.2-8.7.1-13,0-3.7,0-5.5,1.4-5.4,5.3.1,3.8.1,7.7,0,11.5,0,3.6,1.4,5.2,5,5.1,3.8,0,7.7,0,11.5,0,7.5.1,8.4,1,8.5,8.3,0,3.3,0,6.7,0,10,0,6.2.4,6.6,6.4,6.7,2.7,0,5.3,0,8,0,7.1,0,7.4-.4,7.4-7.2,0-11,0-22,0-32.9,0-1.8,0-3.7.3-5.5.3-1.7,1-3.5,2.9-3.7,7.4-.7,14.8-1.8,22.1.7,2.3,2.3,1.7,5.2,1.7,8,.1,3.8,0,7.6,0,11.4,0,2.9,1.3,4.2,4.2,4.2,4.5,0,8.9,0,13.4,0,2.9,0,4.2-1.2,4.2-4.2,0-4.3,0-8.6,0-12.9,0-3.3-1.3-4.8-4.7-4.8-4.3,0-8.6,0-12.9,0-2.2,0-4.3,0-6-1.7-1.4-1.7-1.3-3.7-1.3-5.7,0-20.9,0-41.8,0-62.6,0-1.5,0-3,.6-4.4.3-.6.7-1.1,1.2-1.5,8.3-1.4,16.5-2,24.7.3,2.6,4.1,1.4,8.7,1.5,13.1.2,11.5-.9,10.3,10.5,10.6,4.4,0,9-1.1,13.2,1.4,1.7,2.2,1.4,4.7,1.4,7.2,0,10.6,0,21.3,0,31.9q0,8.4,8.6,8.4c2.7,0,5.3-.1,8,0,3.9.2,5.3-1.6,5.2-5.4,0-11.5,0-22.9,0-34.4,0-2.6-.4-5.4,1.4-7.7,7.7-2.8,15.7-1.6,23.5-.8,2.6.2,3,2.9,3.1,5.1.3,4.5.1,9,.1,13.4,0,3.3,1.5,4.9,4.8,4.8,3.3,0,6.6,0,10,0,5.5,0,6-.5,6-5.9,0-11.3,0-22.6,0-33.8,0-2.6-.4-5.4,1.4-7.7,1.3-1.2,3-1.4,4.7-1.4,13.7-.1,27.5-.2,41.2,0,1.2,0,2.3.2,3.4.8.2.2.5.4.7.6Z"/><path class="cls-2" d="m49,247.9c6.8,0,13.6-.3,20.4,0,4.1.2,4.9-1.3,4.7-5-.3-5.6,0-11.3-.1-16.9-.1-2.7.8-3.3,3.4-3.2,23.6.1,47.1,0,70.7.1.2.2.4.4.6.7,1.7,5.5.6,11.1.8,16.7.2,5.6.4,5.8,5.9,6,5.7.2,11.6-.8,17.2.8.6.3,1,.8,1.2,1.4,1.4,6.6.7,13.2.5,19.8,0,3.9-2.9,4.9-6.2,5-6.6.2-13.3,0-19.9,0-5.6,0-11.3,0-16.9,0-5.1.1-5.6.6-5.7,5.9,0,2.8,0,5.6,0,8.5,0,7.1.3,7.4,7.2,7.4,8.6,0,17.3,0,25.9,0,18.8,0,37.5,0,56.3,0,2.6,0,5.3-.3,7.8,1.2,1.3,1.2,1.6,2.9,1.6,4.5-.2,6.7,1,13.4-.7,20-.2.2-.4.5-.6.7-23.5,0-46.9.1-70.4,0-3.6,0-4.9.6-4.7,4.5.4,5.6.2,11.3,0,17,0,2.7.6,3.7,3.5,3.6,6.1-.2,12.3,0,18.5-.1,2.3,0,3.2.5,3.1,3-.2,6-.2,12,0,18,0,2.4-.6,3.2-3,3.1-6.3-.2-12.7,0-19-.1-2.4,0-3.1.6-3.1,3,.2,6.2.2,12.3,0,18.5,0,2.8.7,3.6,3.6,3.6,14.1-.1,28.3,0,42.4-.1,3.3,0,4.2.9,4.1,4.1-.3,5.8-.2,11.7,0,17.5.1,2.9-.8,3.6-3.6,3.5-14.1-.1-28.3,0-42.4-.2-3.3,0-4.2,1-4,4.1.3,5.8.2,11.7,0,17.5-.1,2.9.9,3.5,3.6,3.5,23.8-.1,47.6-.1,71.4-.1,1.5,1.8,1.4,4,1.5,6.1,0,3.6.2,7.3,0,10.9-.2,4.1,1.5,5.7,5.6,5.5,4.1-.2,8.3,0,12.4,0,2.7,0,3.9-1.3,3.9-3.9,0-4,0-8,0-11.9.1-3.6-1.4-5.1-5-5.1-4.1.1-8.3,0-12.4,0-2.2,0-4.3,0-6.1-1.4,0-15.3.1-30.6,0-45.9,0-3.1.6-4.3,4-4.2,5.8.3,11.6.2,17.5,0,2.7,0,3.7.6,3.6,3.5-.2,6,0,12-.1,18,0,2.8.6,3.7,3.5,3.6,5.8-.2,11.6,0,17.5-.1,2.3,0,3.1.6,3.1,3,0,22.6-.1,45.3,0,67.9,0,3-1.3,3.1-3.5,3.1-5.7,0-11.3.1-17,0-2.8-.1-3.7.7-3.6,3.5.2,6.1,0,12.3.1,18.5,0,2.4-.6,3.1-3,3.1-6.3-.2-12.6,0-19-.1-2.4,0-3.1.6-3.1,3.1.2,6.3,0,12.6.1,19,0,2.4-.7,3.1-3.1,3.1-6.3-.2-12.6-.2-19,0-2.4,0-3.1-.7-3-3.1.2-6-.2-12,.1-18,.2-3.3-.9-4.1-4.1-4-21.8.1-43.6,0-65.4.2-3.8,0-4.8-.9-4.6-4.6.3-5.6,0-11.3.2-17,.1-2.9-.9-3.6-3.6-3.5-14.1.1-28.3,0-42.4.1-3.3,0-4.2-.9-4-4.1.3-5.8,0-11.7.1-17.5.1-2.9-.9-3.5-3.6-3.5-14,.1-28,.1-41.9,0-2.9,0-3.5.9-3.5,3.6.1,14.1,0,28.3.1,42.4,0,3.4-1,4.2-4.2,4-5.8-.2-11.6-.1-17.5,0-2.3,0-3.5-.2-3.5-3.1.1-39.3,0-78.5,0-117.8,0-2.5.8-3.1,3.1-3,6.2.1,12.3.2,18.5,0,2.9-.1,3.5.9,3.5,3.6-.1,14,.1,28-.2,41.9,0,3.9,1.1,4.6,4.7,4.5,13.5-.2,27-.2,40.4,0,3.4,0,4.1-1,4-4.2-.2-7,0-14,0-21,0,0-.1.1-.1.1,8.4,0,16.7-.1,25.1-.2,1.7,2.1,1.5,4.7,1.5,7.2,0,11.1,0,22.3,0,33.4,0,6.5.4,6.8,6.7,6.9,3.7,0,7.3,0,11,0,2.9,0,4.2-1.4,4.2-4.3,0-12.3,0-24.6,0-36.9,0-3.5-1.6-4.7-4.9-4.7-4.2,0-8.3,0-12.5,0-2.2,0-4.3,0-6.2-1.5,0-15.3.2-30.5,0-45.8,0-3.6,1-4.4,4.4-4.3,5.8.3,11.6,0,17.4.1,2.7,0,3.4-.8,3.3-3.3-.2-5.6-.2-11.3,0-16.9.1-3.1-.7-3.9-3.8-3.8-13.9.2-27.9,0-41.8.2-3.3,0-4.7-.5-4.5-4.2.3-7,.1-13.9.2-20.9.2-.2.5-.4.7-.6,5.5-1.7,11.2-.6,16.8-.9,5.2-.3,5.8-.6,5.8-5.7,0-11.8,0-23.6,0-35.3,0-5.2-.5-5.7-5.7-5.8-11.6,0-23.2,0-34.8,0-2.3,0-4.7.2-6.9-.6-.6-.2-1.1-.6-1.5-1.1-1.6-7.6-1.4-15.3-.2-23,.2-.2.4-.5.6-.7Z"/><path class="cls-2" d="m469.6,321.8c0-15.5,0-31-.1-46.4,0-2.7.6-3.8,3.5-3.6,6,.2,12,.2,18,0,2.8,0,3.7.6,3.6,3.5-.2,6.1,0,12.3-.1,18.5,0,2.4.6,3.2,3,3.1,6.3-.2,12.7-.2,19,0,2.4,0,3.1-.6,3.1-3-.2-6,.1-12-.1-18-.1-3.3.8-4.1,4.1-4.1,21.8.2,43.6,0,65.4.2,3.7,0,4.7-.9,4.6-4.6-.3-13.5,0-27-.2-40.4,0-3.3.9-4.2,4.1-4.1,6,.3,12,0,18,.1,2.5,0,3.1-.8,3-3.1-.2-6.2,0-12.3,0-18.5,0-2.3.1-3.5,3.1-3.5,22.6.1,45.3.1,67.9,0,3.1,0,3,1.5,3,3.6,0,15.5,0,31,0,46.4-.2.2-.4.4-.7.6-4.8,1.6-9.8.7-14.7.8-7,.2-6.9,0-7.1,7.3-.1,4.9.7,9.9-.7,14.7-.3.6-.7,1-1.3,1.3-8.1.9-16.2,1.9-24.2-.6-2.9-3.7-1.6-8-1.6-12.1-.2-11.6.8-10.6-10.5-10.5-13,0-11.4-1.5-11.5,11.4,0,9.5,0,9.3,9.5,9.6,4.7.1,9.7-1.4,14.1,1.6,2.7,7.6,1.6,15.4.7,23.1-.4,3.3-3.9,3.2-6.5,3.2-10.3.2-20.6,0-30.9,0-13.2,0-11.8-1-11.8,11.8,0,13.2,0,13.2-13.2,13.2-11.8,0-10.6-.8-10.8,10.8,0,4.2,1,8.7-1.4,12.7-7.8,2.8-15.7,1.6-23.5.8-2.6-.3-2.9-2.9-3.1-5.1-.3-4.5,0-9-.2-13.5-.1-5.2-.5-5.7-5.8-5.7-19.6,0-39.2,0-58.8,0-2.6,0-5.3.3-7.9-.9-.2-.2-.5-.4-.7-.6Z"/><path class="cls-2" d="m172.8,222.9c6.6,0,13.3-.3,19.9,0,4,.2,5.3-.6,5.2-5-.3-21.9,0-43.9-.2-65.8,0-3.5.9-4.5,4.4-4.3,6,.3,12,.2,17.9,0,2.2,0,2.8.6,2.8,2.8-.1,6.3,0,12.6-.1,18.9,0,2.6.6,3.4,3.3,3.3,5.8-.2,11.6-.3,17.4,0,3.4.2,4.4-.7,4.4-4.3-.2-22.3,0-44.5,0-66.8,0-1,0-2,0-3,.2-.2.5-.4.7-.6,6.7-1.7,13.5-.8,20.3-.6,2.5,0,3.8,1.7,4.2,4.2.3,2,.3,4,.3,6,0,16.3,0,32.6,0,48.8q0,14.6,14.4,14.7c3.1,0,6.4-.6,9.2,1.5,2.7,7.6,1.5,15.4.9,23.1-.2,2.9-3,3.3-5.4,3.4-4.5.3-9,.2-13.5,0-4.1-.1-5.6,1.6-5.6,5.6,0,11.6,0,23.3,0,34.9,0,8.5-1,9.4-9.6,9.4-27.8,0-55.6,0-83.4,0-2.6,0-5.4.3-7.6-1.7h.1c-1.3-1.3-1.6-3.1-1.6-4.9.3-6.4-.9-12.8.8-19.2.2-.2.4-.5.6-.7Z"/><path class="cls-2" d="m445.6,147.9c-7.1,0-14.2.2-21.4,0-3.2-.1-3.8.9-3.7,3.9.1,15.4,0,30.8,0,46.2-.2.2-.5.4-.7.6-5.5,1.7-11.2.6-16.7.8-5.4.3-5.9.5-5.9,6.1,0,4,0,7.9,0,11.9,0,2,0,4-1.6,5.6h.1c-1.2.9-2.5,1.5-4.1,1.4-7-.3-14.1,1.5-21-1.2-2.7-4.1-1.4-8.7-1.5-13.1-.3-11.2,1.1-10.5-10.6-10.5q-13.5,0-13.5-13.4c0-10.1,0-20.3,0-30.4,0-2.3-.2-4.7.9-6.9.2-.2.4-.5.6-.7,6.8,0,13.6.2,20.4-.2,3.3-.2,3.8,1.1,3.7,4-.2,5.6.2,11.3-.1,16.9-.2,3.7,1.1,4.4,4.4,4.2,5.6-.3,11.3-.3,16.9,0,3.2.2,3.8-.9,3.8-3.9-.2-13.8,0-27.6-.1-41.3,0-3,.6-3.9,3.8-3.9,14.1.2,28.2.2,42.3,0,2.8,0,4.1.3,4,3.7-.3,6.8-.1,13.6-.2,20.4h.1Z"/><path class="cls-2" d="m445.5,321.8c8,0,16.1,0,24.1,0h-.1c2.7,3.6,1.5,7.9,1.6,11.9.3,12.2-1.3,11.3,11.2,11.4q13.8,0,13.8,14c0,9.8,0,19.6,0,29.4,0,2.5.2,5-1.4,7.2-1.9,1.7-4.4,1.6-6.6,1.5-6.1-.4-12.3,1.3-18.2-1.2-1.8-1.6-1.8-3.8-1.8-6,0-4.3,0-8.6,0-12.9,0-3.3-1.2-5-4.7-4.9-4,0-8,0-12,0-2.8,0-4.3,1.1-4.3,4.1,0,4.5,0,9,0,13.4,0,3.3,1.7,4.3,4.7,4.3,4,0,8,0,12,0,2.2,0,4.4,0,6,1.7,2.1,8.3,2.5,16.6-.3,24.8h.1c-1.8,1.4-3.9,1.5-6.1,1.5-12.3,0-24.6,0-36.9,0-2.2,0-4.3,0-6.1-1.7h.1c-1.7-1.8-1.7-4.1-1.7-6.5,0-20.3,0-40.6,0-60.8,0-2.3,0-4.7,1.7-6.6h-.1c3.7-2.6,8-1.3,12-1.4,12.8-.3,11.2,1.3,11.5-11.5,0-4-1.2-8.3,1.6-12h-.1Z"/><path class="cls-2" d="m346.7,420.5c-7.1,0-14.3-.2-21.4.2-3.3.1-3.8-1-3.7-3.9.2-5.8-.1-11.6.1-17.4.2-3.2-.9-3.8-3.9-3.8-14.1.2-28.2,0-42.3.1-2.9,0-4.1-.4-3.9-3.7.3-7.1.1-14.3.2-21.4.2-.2.5-.4.7-.6,5-1.7,10.2-.7,15.3-.8,7.1-.2,7.3-.3,7.4-7.2,0-11.1,0-22.2,0-33.3,0-2.5-.3-5,1.5-7.1,7.6-2.7,15.4-1.4,23.1-.9,2.6.2,3.2,2.6,3.4,4.9.3,3.8.1,7.6.2,11.4q0,8.1,7.9,8.1c3.3,0,6.6,0,10,0,2,0,4,.2,5.6,1.6h-.1c1.7,1.8,1.7,4.1,1.7,6.5,0,20.3,0,40.6,0,60.8,0,2.3,0,4.7-1.7,6.6,0,0,.1-.1.1-.1Z"/><path class="cls-2" d="m49.1,296.7c-6.8,0-13.7.2-20.5,0-2.7,0-3.7.6-3.6,3.5.2,6.2,0,12.3.1,18.5,0,2.3-.5,3.2-3,3.1-6.3-.2-12.7-.2-19,0-2.4,0-3.1-.6-3.1-3,0-39.3,0-78.6,0-117.8,0-2.4.6-3.1,3.1-3.1,6.3.2,12.7.2,19,0,2.4,0,3.1.7,3,3.1-.2,6.2.1,12.3-.1,18.5-.1,2.9.8,3.6,3.6,3.5,5.7-.2,11.3.1,17-.1,2.9-.1,3.6.9,3.5,3.6-.2,7.2-.1,14.3-.1,21.5h.1c-4.1,2.7-8.7,1.3-13.1,1.4-10.3.2-9.5-.3-9.4,9.5,0,12.7-1.5,11.3,11.4,11.5,3.7,0,7.7-1,11.1,1.6h-.1c1.3,1.3,1.6,3.1,1.6,4.9-.3,6.4.9,12.8-.8,19.2-.2.2-.4.5-.6.7Z"/><path class="cls-2" d="m222.7,25c0,6.8.2,13.6,0,20.4-.1,3.2,1,3.8,3.9,3.7,15.1-.1,30.1,0,45.2,0,.2.2.4.5.6.7,1.7,7.1.8,14.2.6,21.3,0,3.1-2.4,4.1-5.1,4.3-4,.3-8,0-12,.1-6.2,0-6.5.3-6.6,6.4,0,3.7,0,7.3,0,11,0,2.2,0,4.4-1.6,6.1,0,0,.1-.1.1-.1-15.4,0-30.9,0-46.3.1-3.2,0-3.8-.9-3.8-3.9.1-22.1.1-44.2,0-66.2,0-2.8.4-4.1,3.7-4,7.1.3,14.3.1,21.4.2h-.1Z"/><path class="cls-2" d="m271.8,49.1c0-6.8.2-13.6-.2-20.4-.2-3.3,1.1-3.8,4-3.7,5.8.2,11.6-.2,17.4.1,3.2.2,3.8-1,3.7-3.9-.2-6,0-12-.1-17.9,0-2.7.8-3.3,3.4-3.3,14.4.1,28.9.2,43.3,0,3.1,0,3.4,1.2,3.4,3.8-.1,15.1,0,30.2-.1,45.3-.2.2-.5.4-.7.6-5.5,1.7-11.2.6-16.8.9-5.1.3-5.6.7-5.8,5.8-.1,4.5,0,9-.1,13.5-.1,3.6-1.9,5.5-5.6,5.6-5.5.1-11,0-16.5,0-3.9,0-5.8-1.9-5.9-5.8,0-3.7,0-7.3,0-11q0-8.1-7.9-8.1c-3.3,0-6.7,0-10,0-2,0-4-.1-5.6-1.6h.1Z"/><path class="cls-2" d="m519.4,197.9c15.5,0,30.9,0,46.4-.2,3.3,0,3.7,1.1,3.7,3.9-.1,14.1-.2,28.2,0,42.4,0,3.2-.8,3.8-3.9,3.8-22.4-.1-44.9-.1-67.3,0-2.9,0-4.1-.5-3.9-3.7.3-5.8.3-11.6,0-17.4-.2-3.5,1.2-4,4.2-3.9,5.5.2,11-.3,16.4.2,4,.3,4.6-1.2,4.5-4.7-.3-6.8,0-13.6,0-20.4h-.1Z"/><path class="cls-2" d="m445.5,49.1c15.1,0,30.1-.1,45.2,0,2.9,0,4-.5,3.9-3.7-.3-6.8,0-13.6,0-20.4,0,0-.1.1-.1.1,7.1,0,14.3,0,21.4-.1,2.7,0,3.7.4,3.7,3.4-.2,14.1-.1,28.2,0,42.3,0,2.7-.8,3.3-3.3,3.3-22.4,0-44.8-.1-67.2,0-3,0-3.5-1-3.4-3.7.2-7.1,0-14.3.1-21.4h-.1Z"/><path class="cls-2" d="m494.4,643.2c0,23.4,0,46.8.1,70.3,0,3.2-.9,3.8-3.9,3.8-13.8-.2-27.6-.2-41.4,0-3,0-4-.6-3.9-3.8.3-5.8.2-11.6,0-17.4-.1-3,.5-4.1,3.8-3.9,5.1.3,10.3-.1,15.4.2,3.7.2,5-.6,5-4.7-.3-14.8,0-29.6,0-44.3.2-.2.5-.4.7-.6,8.1-1,16.2-2.2,24.2.8h-.1Z"/><path class="cls-2" d="m692.2,247.9c7.1,0,14.3,0,21.4-.1,2.6,0,3.8.3,3.7,3.4-.2,14.1-.1,28.2,0,42.3,0,2.5-.5,3.5-3.3,3.4-5.5-.2-11,.2-16.4-.2-4.1-.3-5.8.5-5.5,5.2.5,6.6,0,13.3,0,19.9h.1c-8-.1-16.1-.1-24.1-.1-.2-.2-.4-.5-.6-.7-.7-1.4-.8-2.9-.8-4.3,0-13.1,0-26.2,0-39.3,0-2,.2-4,1.6-5.6h-.1c4.1-2.7,8.7-1.3,13-1.4,10.1-.2,9.3.5,9.5-9.5,0-4.4-1.3-9,1.6-13h-.1Z"/><path class="cls-2" d="m271.8,370.6c-23.4,0-46.8,0-70.2.1-3,0-4-.7-3.8-3.8.3-5.5.2-11,0-16.4-.1-3,.5-4.1,3.7-3.9,5.3.3,10.6-.2,15.9.2,4.1.3,5.8-.5,5.5-5.2-.5-6.6,0-13.3,0-19.9,0,0-.1.1-.1.1,1.2-1,2.5-1.6,4.1-1.5,7,.3,14.1-1.5,21,1.2,2.7,3.9,1.4,8.3,1.5,12.5.3,11.9-1.1,11.1,10.9,11.1,13.1,0,13.2,0,13.1,13.1,0,4.2,1.2,8.6-1.6,12.5h.1Z"/><path class="cls-2" d="m668.2,321.6c0,16.4,0,32.7,0,49.1-.2.2-.5.4-.7.6-8.2,1-16.4,2.1-24.5-.8-2.3-4.7-1.1-9.8-1.3-14.7-.2-7.3-.3-7.5-7.6-7.6-4,0-8,.1-11.9-.1-3.4-.2-5.2-2-5.3-5.3-.3-5.6-.2-11.3,0-16.9.1-3.6,1.9-5.6,5.5-5.6,13.9-.2,27.9-.2,41.8,0,1.5,0,2.9.5,4.1,1.6h-.1Z"/><path class="cls-2" d="m668.3,692.1c-7.1,0-14.3,0-21.4.1-2.7,0-3.7-.5-3.7-3.4.2-14.1.1-28.2,0-42.3,0-2.7.8-3.3,3.4-3.3,14.1.1,28.2.1,42.3,0,2.5,0,3.5.5,3.4,3.2-.2,6.1-.2,12.3,0,18.4.1,3.1-1.1,3.5-3.7,3.4-5.1-.2-10.3.3-15.4-.2-4.4-.4-5.2,1.3-5,5.2.3,6.3,0,12.6,0,18.9h.1Z"/><path class="cls-2" d="m370.4,48.8c0,24.1.1,48.1.3,72.2,0,2.6-.9,3-3.2,2.9-7-.1-13.9,0-20.9-.1-.2-.3-.4-.5-.6-.8-1-2-.9-4.2-.9-6.3,0-20.2,0-40.5,0-60.7,0-2.5-.2-5,1.7-7.1,0,0-.1.1-.1.1,8,0,16,0,24-.1h-.1Z"/><path class="cls-2" d="m519.5,197.8c-7.1,0-14.3,0-21.4.1-2.6,0-3.7-.4-3.7-3.4.2-14.4.1-28.9,0-43.3,0-2.6.7-3.4,3.3-3.3,6,.2,12,.2,17.9,0,3-.1,3.9.6,3.9,3.8-.2,15.4-.1,30.9-.1,46.3,0,0,.1-.1.1-.1Z"/><path class="cls-2" d="m495,99c7.2,0,14.3,0,21.5,0,2.4,0,3.1.6,3.1,3.1-.2,6.3-.2,12.6,0,19,0,2.4-.7,3.1-3.1,3.1-14.6-.1-29.3-.1-43.9,0-2.4,0-3.1-.6-3.1-3.1.2-6.3.2-12.6,0-19,0-2.4.7-3.1,3.1-3.1,7.5.1,15,0,22.5,0Z"/><path class="cls-2" d="m420.3,48.8c0,15.8,0,31.5.3,47.3,0,2.7-1.1,2.9-3.2,2.9-6.1-.1-12.3-.2-18.4,0-3.1.1-3.4-1.1-3.4-3.7.1-15.4,0-30.9.1-46.3h-.1c8.3,0,16.6,0,25,0,0,0-.1-.1-.1-.1Z"/><path class="cls-2" d="m223.2,692.2c7,0,14,.1,21,0,2.6,0,3.8.4,3.7,3.4-.2,6-.2,12,0,18,0,2.7-.5,3.7-3.5,3.7-14.3-.2-28.6-.1-42.9,0-2.7,0-3.8-.4-3.7-3.4.2-6,.3-12,0-18-.2-3.4,1.2-3.7,4-3.7,7.1.2,14.3,0,21.5,0Z"/><path class="cls-2" d="m445.6,49c-8.4,0-16.8,0-25.3-.2,0,0,.1.1.1.1,0-14.8.2-29.6,0-44.4,0-3.9,1.1-4.7,4.7-4.5,5.5.3,11,.2,16.5,0,2.8,0,4.1.3,4,3.6-.2,15.1-.1,30.3-.2,45.4,0,0,.1-.1.1-.1Z"/><path class="cls-2" d="m395.7,49c-8.4,0-16.8,0-25.3-.2,0,0,.1.1.1.1,0-14.8.2-29.6,0-44.4,0-3.9,1.1-4.7,4.7-4.5,5.5.3,11,.2,16.5,0,2.8,0,4.1.3,4,3.7-.2,15.1-.1,30.3-.2,45.4,0,0,.1-.1.1-.1Z"/><path class="cls-2" d="m420.5,197.9c15.1,0,30.2,0,45.3-.1,3.1,0,3.9.8,3.8,3.9-.3,5.8-.3,11.6,0,17.4.1,3-.6,3.9-3.8,3.9-15.1-.2-30.2-.1-45.3-.1,0,0,.1.1.1.1-1-1.2-1.6-2.6-1.5-4.1.5-7-1.8-14.2,1.5-21h-.1Z"/><path class="cls-2" d="m668.2,370.7c15.1,0,30.2,0,45.3-.1,3.1,0,3.9.8,3.8,3.9-.3,6-.2,11.9,0,17.9,0,2.5-.6,3.4-3.3,3.3-15.3-.2-30.5-.1-45.8-.1-.2-.2-.4-.5-.6-.7-1-8.1-2.2-16.2.8-24.2h-.1Z"/><path class="cls-2" d="m469.6,643.2c-6.8,0-13.6-.1-20.4.1-3.2.1-3.8-.9-3.7-3.9.2-15.4.1-30.8.1-46.2,0,0-.1.1-.1.1,1.7-1.6,3.9-1.8,6.1-1.6,6,.5,12.3-1.6,18,1.6h-.1c1.6,1.6,1.7,3.8,1.7,6,0,12.6,0,25.3,0,37.9,0,2.2,0,4.3-1.7,6.1h.1Z"/><path class="cls-2" d="m692.2,321.7c7.1,0,14.3,0,21.4-.1,2.6,0,3.9.3,3.7,3.4-.3,6.1-.2,12.3,0,18.4,0,2.6-.7,3.4-3.3,3.3-6-.2-11.9-.2-17.9,0-3,.1-4-.5-3.9-3.7.3-7.1.1-14.2.2-21.4,0,0-.1.1-.1.1Z"/><path class="cls-2" d="m74.1,321.6c-7.3,0-14.5,0-21.8.1-2.6,0-3.4-.7-3.3-3.3.2-7.3.1-14.5.1-21.8,0,0-.1.1-.1.1,2.4-2.1,5.3-1.7,8.1-1.7,4.3,0,8.6-.2,12.9.1,2.2.1,4.8.5,5,3.1.6,7.8,2.1,15.7-1,23.4h.1Z"/><path class="cls-2" d="m74.1,420.5c-7.1,0-14.3,0-21.4.1-2.6,0-3.9-.3-3.7-3.4.3-6.3.2-12.6,0-18.9,0-2.2.6-2.8,2.8-2.8,6.5.1,12.9.2,19.4,0,2.6,0,2.9,1.1,2.9,3.2-.1,7.3,0,14.6,0,21.9,0,0,.1-.1.1-.1Z"/><path class="cls-2" d="m668.2,395.5c0,7.3,0,14.5.1,21.8,0,2.6-.7,3.4-3.3,3.3-7.3-.2-14.5-.1-21.8-.1h.1c-1-1-1.6-2.4-1.5-4,.4-7-1.5-14.2,1.3-21,8.4-2.3,16.8-2.6,25.2.2h-.1Z"/><path class="cls-2" d="m222.9,25.2c0-7.1,0-14.3-.1-21.4,0-2.6.3-3.9,3.4-3.7,6.3.3,12.6.2,18.9,0,2.2,0,2.8.6,2.8,2.8-.1,6.5-.2,12.9,0,19.4,0,2.7-1.1,2.9-3.2,2.9-7.3-.1-14.6,0-21.9,0,0,0,.1.1.1.1Z"/><path class="cls-2" d="m494.6,25c-7.1,0-14.3,0-21.4.1-2.6,0-3.9-.3-3.7-3.4.3-6.3.2-12.6,0-18.9,0-2.2.6-2.8,2.8-2.8,6.5.1,12.9.2,19.4,0,2.6,0,2.9,1.1,2.9,3.2-.1,7.3,0,14.6-.1,21.9,0,0,.1-.1.1-.1Z"/><path class="cls-2" d="m247.6,593.1c0,7.5,0,14.9.3,22.4,0,2.1-.4,2.9-2.7,2.9-6.5-.1-12.9-.2-19.4,0-2.5,0-3-.9-3-3.1.1-6.3.2-12.6,0-18.9,0-2.4.7-3.1,3.1-3,7.3.1,14.6,0,21.9,0h-.1Z"/><path class="cls-2" d="m692.2,593.4c7.1,0,14.3,0,21.4-.1,2.6,0,3.8.3,3.7,3.4-.3,6.1-.2,12.3,0,18.4,0,2.6-.7,3.4-3.3,3.3-6.1-.2-12.3-.2-18.4,0-2.5,0-3.5-.5-3.4-3.2.2-7.3.1-14.6.2-21.9h-.1Z"/><path class="cls-2" d="m234.9,667.9c-3.9,0-9.1,2-11.4-.5-1.9-2.1-.7-7.2-.6-11,.1-4.3-1.9-9.9.8-12.4,2.3-2.1,7.9-.8,12-.7,3.9,0,9.1-1.8,11.4.8,1.9,2.1.7,7.2.6,11-.1,4.3,1.9,9.9-.8,12.4-2.3,2.1-7.9.4-12,.4Z"/><path class="cls-2" d="m148,222.9c0-7.3,0-14.6,0-21.9,0-2.1.1-3.3,2.8-3.3,6.5.2,12.9.2,19.4,0,2.7,0,2.9,1.1,2.8,3.3-.1,7.3,0,14.6-.1,21.9,0,0,.1-.1.1-.1-1.2,1-2.6,1.6-4.1,1.5-7-.5-14.2,1.8-21-1.5h.1Z"/><path class="cls-2" d="m296.6,692.3c7.1,0,14.3,0,21.4-.1,2.6,0,3.9.3,3.7,3.4-.3,6.3-.2,12.6,0,18.9,0,2.2-.6,2.8-2.8,2.8-6.5-.1-12.9-.2-19.4,0-2.6,0-2.9-1.1-2.9-3.2.1-7.3,0-14.6,0-21.9,0,0-.1.1-.1.1Z"/><path class="cls-2" d="m593.3,692.3c7.1,0,14.3,0,21.4-.1,2.6,0,3.9.3,3.7,3.4-.3,6.3-.2,12.6,0,18.9,0,2.2-.6,2.8-2.8,2.8-6.5-.1-12.9-.2-19.4,0-2.6,0-2.9-1.1-2.9-3.2.1-7.3,0-14.6,0-21.9,0,0-.1.1-.1.1Z"/><path class="cls-2" d="m346.6,123.9c0,8,0,16.1,0,24.1h.1c-1.2.9-2.6,1.5-4.1,1.4-7-.4-14.2,1.6-21.1-1.4-2.7-7.4-1.4-15-.8-22.5,0-1.2,1-2.3,2.2-2.4,8-.7,16-2.2,23.9.9h-.1Z"/><path class="cls-2" d="m445.5,148c6.8,0,13.6,0,20.4-.1,2.6,0,3.9.3,3.7,3.4-.3,6.3-.2,12.6,0,18.9,0,2.2-.6,2.8-2.8,2.8-6.1-.1-12.3-.2-18.4,0-2.7,0-2.9-1.1-2.9-3.2.1-7.3,0-14.6,0-21.9,0,0-.1.1-.1.1Z"/><path class="cls-2" d="m668.2,692.3c6.8,0,13.6,0,20.4-.1,2.6,0,3.9.3,3.7,3.4-.3,6.3-.2,12.6,0,18.9,0,2.2-.6,2.8-2.8,2.8-6.1-.1-12.3-.2-18.4,0-2.7,0-2.9-1.1-2.9-3.2.1-7.3,0-14.6,0-21.9,0,0-.1.1-.1.1Z"/><path class="cls-2" d="m271.8,593.3c-8.1,0-16.2,0-24.3-.1,0,0,.1.1.1.1,0-6.8.1-13.6,0-20.5,0-2.3.1-3.6,3.1-3.5,6,.3,12,.2,18,0,2.5,0,3,.9,3,3.1-.1,7,0,14-.1,21,0,0,.1-.1.1-.1Z"/><path class="cls-2" d="m692.3,593.3c-8,0-16.1,0-24.1,0h.1c-1.6-1.6-1.8-3.8-1.6-5.9.5-6-1.6-12.3,1.6-18h-.1c6.9.1,13.9.2,20.8,0,2.6,0,3.4.7,3.3,3.3-.2,6.9,0,13.9-.1,20.8,0,0,.1-.1.1-.1Z"/><path class="cls-2" d="m36.6,346.9c4,0,9.3-1.6,11.5.4,2.7,2.3.8,7.8.8,11.9.1,11.4,0,11.5-11.5,11.4-4,0-9.3,1.4-11.6-.6-2.7-2.4-.8-7.8-.8-11.9-.1-11.4,0-11.4,11.5-11.2Z"/><path class="cls-1" d="m556.4,519.4c11.1,0,22.3,0,33.4,0,2.8,0,3.6.7,3.6,3.6-.1,22.3-.1,44.6,0,66.9,0,2.8-.7,3.6-3.6,3.6-22.3-.1-44.6-.1-66.9,0-2.8,0-3.6-.7-3.6-3.6.1-22.3.1-44.6,0-66.9,0-2.8.7-3.6,3.6-3.6,11.1.2,22.3,0,33.4,0Z"/><path class="cls-2" d="m296.8,321.8c-16.4,0-32.7,0-49.1,0,0-7.3,0-14.5.1-21.8,0-2.6-.7-3.4-3.3-3.3-7.3.2-14.5.1-21.8.1,0-7,.3-13.9,0-20.9-.2-3.6,1.1-4.2,4.4-4.2,23.2.1,46.4,0,69.6,0v50.1Z"/><path class="cls-2" d="m296.7,173c0-7.3.2-14.5,0-21.8,0-2.6.7-3.3,3.3-3.3,7.3.2,14.5,0,21.8,0,0,7.3-.2,14.5,0,21.8,0,2.6-.7,3.3-3.3,3.3-7.3-.2-14.5,0-21.8,0Z"/><path class="cls-2" d="m370.7,247.9c-8,0-16.1,0-24.1,0,0-7.3.2-14.5,0-21.8,0-2.6.7-3.4,3.3-3.3,6.9.2,13.9,0,20.8,0v25.1Z"/><path class="cls-2" d="m519.4,445.6c0-7.3,0-14.5.1-21.8,0-2.6-.7-3.4-3.3-3.3-7.3.2-14.5.1-21.8.1,0-8.4,0-16.7,0-25.1,15.4,0,30.8.1,46.3,0,3.1,0,3.9.7,3.8,3.8-.2,15.4,0,30.8,0,46.3h-25.1Z"/><path class="cls-2" d="m643.4,370.6c0,8.4,0,16.7,0,25.1-16.7,0-33.4,0-50.1,0,0-8.4,0-16.7,0-25.1,16.7,0,33.4,0,50.1,0Z"/><path class="cls-2" d="m593.4,395.5v25.1c-6.8,0-13.6-.2-20.4,0-3.2.1-3.9-.9-3.8-3.9.2-5.8.2-11.6,0-17.4-.1-3,.6-4,3.8-3.9,6.8.3,13.6,0,20.4,0Z"/><path class="cls-2" d="m569.3,346.6c6.9,0,13.9.2,20.8,0,2.6,0,3.4.7,3.3,3.3-.2,6.9,0,13.9,0,20.8-6.9,0-13.9-.2-20.8,0-2.6,0-3.4-.7-3.3-3.3.2-6.9,0-13.9,0-20.8Z"/><path class="cls-2" d="m544.6,556.4c.2-3.9-2-9.1.7-11.4,2.2-1.9,7.3-.7,11.1-.6,4.3.1,9.9-1.9,12.4.9,2.1,2.4.7,7.9.6,12-.1,3.9,1.8,9.1-.8,11.4-2.2,1.9-7.3.7-11.1.6-4.3-.1-9.9,1.9-12.3-.9-2-2.4-.4-7.9-.4-12Z"/><path class="cls-2" d="m124,52.8c0-3.1-.7-3.9-3.8-3.8-22.5.1-44.9.1-67.4,0-3.1,0-3.9.7-3.8,3.8.1,22.5.1,44.9,0,67.4,0,3.1.7,3.9,3.8,3.8,11.1-.2,22.3,0,33.4,0,11.3,0,22.6-.1,33.9,0,3.1,0,3.9-.7,3.8-3.8-.1-22.5-.1-44.9,0-67.4Z"/><path class="cls-2" d="m173,4.6c0-3.7-.8-4.6-4.6-4.6C113.8.2,59.2.2,4.6,0,.9,0,0,.9,0,4.6c.2,27.1,0,54.3,0,81.4,0,27.5,0,54.9,0,82.4,0,3.7.9,4.6,4.6,4.6,54.6-.1,109.2-.1,163.8,0,3.7,0,4.6-.8,4.6-4.6-.1-54.6-.1-109.2,0-163.8Zm-29.1,143.4c-38.3-.1-76.6-.1-114.8,0-3.3,0-4.1-.8-4.1-4.1.1-38.3.1-76.6,0-114.8,0-3.3.8-4.1,4.1-4.1,19.3.2,38.6,0,57.9,0,19,0,37.9,0,56.9,0,3.3,0,4.1.8,4.1,4.1-.1,38.3-.1,76.6,0,114.8,0,3.3-.8,4.1-4.1,4.1Z"/><path class="cls-2" d="m120.4,593.3c-22.6.1-45.3.1-67.9,0-2.8,0-3.6.7-3.6,3.6.2,11.1,0,22.3,0,33.4,0,11.5,0,23,0,34.4,0,2.8.7,3.6,3.6,3.6,22.6-.1,45.3-.1,67.9,0,2.8,0,3.6-.7,3.6-3.6-.1-22.6-.1-45.3,0-67.9,0-2.8-.7-3.6-3.6-3.6Z"/><path class="cls-2" d="m172.9,631.3c0-27.5,0-54.9,0-82.4,0-3.7-.9-4.6-4.6-4.6-54.6.1-109.2.1-163.8,0-3.7,0-4.6.9-4.6,4.6.1,54.6.1,109.2,0,163.8,0,3.7.9,4.6,4.6,4.6,54.6-.1,109.2-.1,163.8,0,3.7,0,4.6-.9,4.6-4.6-.2-27.1,0-54.3,0-81.4Zm-29.4,61c-19.1-.1-38.3,0-57.4,0-19,0-37.9,0-56.9,0-3.1,0-4.2-.6-4.2-4,.1-38.3.1-76.6,0-114.8,0-3.1.6-4.2,4-4.2,38.3.1,76.6.1,114.8,0,3.1,0,4.2.6,4.2,4-.1,38.3-.2,76.6,0,114.8,0,3.8-1.3,4.2-4.5,4.1Z"/><path class="cls-2" d="m717.2,86.5c0-27.3,0-54.6,0-81.9,0-3.8-.9-4.6-4.6-4.6-54.6.1-109.2.1-163.8,0-3.7,0-4.6.9-4.6,4.6.1,54.6.1,109.2,0,163.8,0,3.7.9,4.6,4.6,4.6,54.6-.1,109.2-.1,163.8,0,3.7,0,4.6-.9,4.6-4.6-.2-27.3,0-54.6,0-81.9Zm-24.9,57.4c0,3.3-.8,4.1-4.1,4.1-19.3-.2-38.6,0-57.9,0-19,0-37.9,0-56.9,0-3.3,0-4.1-.8-4.1-4.1.1-38.3.1-76.6,0-114.8,0-3.3.8-4.1,4.1-4.1,38.3.1,76.6.1,114.8,0,3.3,0,4.1.8,4.1,4.1-.1,38.3-.1,76.6,0,114.8Z"/><path class="cls-2" d="m664.7,49c-22.6.1-45.3.1-67.9,0-2.8,0-3.6.8-3.6,3.6.2,11.3,0,22.6,0,33.9s0,22.6,0,33.9c0,2.8.8,3.6,3.6,3.6,22.6-.1,45.3-.1,67.9,0,2.8,0,3.6-.8,3.6-3.6-.1-22.6-.1-45.3,0-67.9,0-2.8-.8-3.6-3.6-3.6Z"/></svg>